/* XPM */
static char *_a5ae3a8d7aa42b4f925b8adc6b2385c1sowWEqmc8Ic8jC5[] = {
/* columns rows colors chars-per-pixel */
"65 64 70 1 ",
"  c #070007",
". c #1F0206",
"X c #171018",
"o c #1D131E",
"O c #221814",
"+ c #311210",
"@ c #231B24",
"# c #281820",
"$ c #3D2923",
"% c #2E2533",
"& c #332C35",
"* c #352D36",
"= c #352E36",
"- c #31313E",
"; c #3B343B",
": c #400B0B",
"> c #45090F",
", c #411E05",
"< c #641318",
"1 c #4B2B13",
"2 c #57352F",
"3 c #75502D",
"4 c #293D4B",
"5 c #463E47",
"6 c #4A444B",
"7 c #4F464F",
"8 c #584C46",
"9 c #4A5057",
"0 c #595050",
"q c #585058",
"w c #5C575D",
"e c #665D66",
"r c #6C6262",
"t c #6D6262",
"y c #686169",
"u c #756962",
"i c #706970",
"p c #756E76",
"a c #726B7E",
"s c #7B7575",
"d c #7E767E",
"f c #7F797F",
"g c #821616",
"h c #9A1A1A",
"j c #831E20",
"k c #9E3E37",
"l c #A12929",
"z c #9A6F37",
"x c #83534E",
"c c #94605A",
"v c #877B75",
"b c #AA8550",
"n c #D28560",
"m c #EAA377",
"M c #5187B3",
"N c #50D4EC",
"B c #8F8484",
"V c #8D8787",
"C c #8D8789",
"Z c #8C868C",
"A c #9C9191",
"S c #A99D97",
"D c #B6AAA4",
"F c #B0A9AA",
"G c #BEB6B8",
"H c #A8C4B1",
"J c #FDD5B7",
"K c #FBECE6",
"L c #F2F8F9",
"P c white",
/* pixels */
"PPPPPPPPPPPPPPPPPPPPPPPPPPPPPPPPPPPPPPPPPPPPPPPPPPPPPPPPPPPPPPPPP",
"PPPPPPPPPPPPPPPPPPPPPPPPPPPPPPPPPPPPPPPPPPPPPPPPPPPPPPPPPPPPPPPPP",
"PPPPPPPPPPPPPPPPPPPPPPPPPPPPPPPPPPPPPPPPPPPPPPPPPPPPPPPPPPPPPPPPP",
"PPPPPPPPPPPPPPPPPPPPPPPPPPPPPPPPPPPPPPPPPPPPPPPPPPPPPPPPPPPPPPPPP",
"PPPPPPPPPPPPPPPPPPPPPPPPPPPPPPPPPPPPPPPPPPPPPPPPPPPPPPPPPPPPPPPPP",
"PPPPPPPPPPPPPPPPPPPPPPPPPPPPPPPPPPPPPPPPPPPPPPPPPPPPPPPPPPPPPPPPP",
"PPPPPPPPPPPPPPPPPPPPPPPPPPPPPPPPPPPPPP.PPPPPPPPPPPPPPPPPPPPPPPPPP",
"PPPPPPPPPPPPPPPPPPPPPPPPPPP...PPPPPPPP>.PPPPPPPPPPPPPPPPPPPPPPPPP",
"PPPPPPPPPPPPPPPPPPPPPPPPPP.><>>..PPP..<.PPPPPPPPPPPPPPPPPPPPPPPPP",
"PPPPPPPPPPPPPPPPPPPPPPPPPPP.<<<>>...>><j.PPPPPPPPPPPPPPPPPPPPPPPP",
"PPPPPPPPPPPPPPPPPPPPPPPPP...>j<<>>.><j<<j.PPPPPPPPPPPPPPPPPPPPPPP",
"PPPPPPPPPPPPPPPPPPPPPPP..><<j<j<<<>>jj<jj<.>>PPPPPPPPPPPPPPPPPPPP",
"PPPPPPPPPPPPPPPPPPPPPP.><jllljlj<j<><jjj<><j>PPPPPPPPPPPPPPPPPPPP",
"PPPPPPPPPPPPPPPPPPPPPPP.>>>><<l<jlj<ljljjll<.PPPPPPPPPPPPPPPPPPPP",
"PPPPPPPPPPPPPPPPPPPPPPPP.><jllljllljlljlllj.PPPPPPPPPPPPPPPPPPPPP",
"PPPPPPPPPPPPPPPPPPPPPPP.<<jlllljlll>jll<ll<.PPPPPPPPPPPPPPPPPPPPP",
"PPPPPPPPPPPPPPPPPPPPPP.><jlll<j<llj><ll<llj.PPPPPPPPPPPPPPPPPPPPP",
"PPPPPPPPPPPPPPPPPPPPP.><.llj<j<>llj.>jlj>jl<.PPPPPPPPPPPPPPPPPPPP",
"PPPPPPPPPPPPPPPPPPPPP.>.lj<<j<.>jl<..<jl.>jj.PPPPPPPPPPPPPPPPPPPP",
"PPPPPPPPPPPPPPPPPPPPPP.j<><><.J.<j.JJ.<lj.>j>PPPPPPPPPPPPPPPPPPPP",
"PPPPPPPPPPPPPPPPPPPPPP.<>.><.JJJ.<.JJJ.<j..<j.PPPPPPPPPPPPPPPPPPP",
"PPPPPPPPPPPPPPPPPPPPP.<...<.JJJJ.>JJJJJ.<.#.<>PPPPPPPPPPPPPPPPPPP",
"PPPPPPPPPPPPPPPPPPPP.>.k.>.JJJJJJ.JJJJJm..k#><PPPPPPPPPPPPPPPPPPP",
"PPPPPPPPPPPPPPPPPPPP..#.>.mJKKJJJJJJKKmmm.J#.>PPPPPPPPPPPPPPPPPPP",
"PPPPPPPPPPPPPPPPPPPPPP#J.mmnkkmJJJJmkknmnmJ#P.PPPPPPPPPPPPPPPPPPP",
"PPPPPPPPPPPPPPPPPPPPPP#JJnmN##NmJJmN##NmnJJ#PPPPPPPPPPPPPPPPPPPPP",
"PPPPPPPPPPPPPPPPPPPPPPP#JnmL#MLJJJJLM#LmnJ#PPPPPPPPPPPPPPPPPPPPPP",
"PPPPPPPPPPPPPPPPPPPPPPPP##mJ44LJJJJL44Jm##PPPPPPPPPPPPPPPPPPPPPPP",
"PPPPPPPPPPPPPPPPPPPPPP  +#nJJJJJJJJJJJJn#+  PPPPPPPPPPPPPPPPPPPPP",
"PPPPPPPPPPPPPPPPPPPPP u=+1kmJJJJJJJJJJmk1+v@ PPPPPPPPPPPPPPPPPPPP",
"PPPPPPPPPPPPPPPPPPPP 0dA+3+kkmJJJJJJmkk+3+dA6 PPPPPPPPPPPPPPPPPPP",
"PPPPPPPPPPPPPPPPPPPP CpD+3z++kkkkkkkk++z3+pD= PPPPPPPPPPPPPPPPPPP",
"PPPPPPPPPPPPPPPPPPP 0iAZ+3zz3++++++++3zz3+ACV; PPPPPPPPPPPPPPPPPP",
"PPPPPPPPPPPPPPPPPPP sySq+3zzz33333333zzz3+SqF& PPPPPPPPPPPPPPPPPP",
"PPPPPPPPPPPPPPPPPPP 6t70+3zzzzzzzzzzzzzz3+;tw0 PPPPPPPPPPPPPPPPPP",
"PPPPPPPPPPPPPPPPPP u=C&8+3zzzzzzzzzzzzzz3+Xu=V& PPPPPPPPPPPPPPPPP",
"PPPPPPPPPPPPPPPPPP wt7t +33zbzzzzzzzzbz33+ wt7t PPPPPPPPPPPPPPPPP",
"PPPPPPPPPPPPPPPPPP eF5  +133zbzzzzzzbz331+  CyD PPPPPPPPPPPPPPPPP",
"PPPPPPPPPPPPPPPPPP Afr P+,113zbbbbbbz311,+P wVd PPPPPPPPPPPPPPPPP",
"PPPPPPPPPPPPPPPPPP Gpv P X99113333331199o P VpD PPPPPPPPPPPPPPPPP",
"PPPPPPPPPPPPPPPPPP     # o44=99HHHH99---o #     PPPPPPPPPPPPPPPPP",
"PPPPPPPPPPPPPPPPPP#mJJm##oo=---G%%H---oooO#mJJm#PPPPPPPPPPPPPPPPP",
"PPPPPPPPPPPPPPPPPP#mKJJJ#++ooooaaaaooo+++#JJJKm#PPPPPPPPPPPPPPPPP",
"PPPPPPPPPPPPPPPPPP#nJJkJ#+1,,,,,+,,,,,,1+#JkJJn#PPPPPPPPPPPPPPPPP",
"PPPPPPPPPPPPPPPPPP#kJJkk#+113333++333311+#kkJJk#PPPPPPPPPPPPPPPPP",
"PPPPPPPPPPPPPPPPPPP#nJmm+++11333+++3311++#mmJn#PPPPPPPPPPPPPPPPPP",
"PPPPPPPPPPPPPPPPPPPP#### 07++++++++++++V7 ####PPPPPPPPPPPPPPPPPPP",
"PPPPPPPPPPPPPPPPPPPPPPPP+ &SqC&V5v=V5vqs :PPPPPPPPPPPPPPPPPPPPPPP",
"PPPPPPPPPPPPPPPPPPPPPPPP+g  6twr7twt;0  g:PPPPPPPPPPPPPPPPPPPPPPP",
"PPPPPPPPPPPPPPPPPPPPPPPP>ghh          hhg:PPPPPPPPPPPPPPPPPPPPPPP",
"PPPPPPPPPPPPPPPPPPPPPPPP@@O###PPPPPP######PPPPPPPPPPPPPPPPPPPPPPP",
"PPPPPPPPPPPPPPPPPPPPPPPP#122O#PPPPPP#O22$#PPPPPPPPPPPPPPPPPPPPPPP",
"PPPPPPPPPPPPPPPPPPPPPPP#O22221#PPPP#$2222O#PPPPPPPPPPPPPPPPPPPPPP",
"PPPPPPPPPPPPPPPPPPPPPPP#2xxx2@#PPPP#O2xxx2#PPPPPPPPPPPPPPPPPPPPPP",
"PPPPPPPPPPPPPPPPPPPPPP#Oxxxxx2#PPPP#2xxxxxO#PPPPPPPPPPPPPPPPPPPPP",
"PPPPPPPPPPPPPPPPPPPPPP#xxxxxx2#PPPP#2xxxxxx#PPPPPPPPPPPPPPPPPPPPP",
"PPPPPPPPPPPPPPPPPPPPPP#2xcccx#PPPPPP#xcccx2#PPPPPPPPPPPPPPPPPPPPP",
"PPPPPPPPPPPPPPPPPPPPPPP######PPPPPPPP####O#PPPPPPPPPPPPPPPPPPPPPP",
"PPPPPPPPPPPPPPPPPPPPPPPPPPPPPPPPPPPPPPPPPPPPPPPPPPPPPPPPPPPPPPPPP",
"PPPPPPPPPPPPPPPPPPPPPPPPPPPPPPPPPPPPPPPPPPPPPPPPPPPPPPPPPPPPPPPPP",
"PPPPPPPPPPPPPPPPPPPPPPPPPPPPPPPPPPPPPPPPPPPPPPPPPPPPPPPPPPPPPPPPP",
"PPPPPPPPPPPPPPPPPPPPPPPPPPPPPPPPPPPPPPPPPPPPPPPPPPPPPPPPPPPPPPPPP",
"PPPPPPPPPPPPPPPPPPPPPPPPPPPPPPPPPPPPPPPPPPPPPPPPPPPPPPPPPPPPPPPPP",
"PPPPPPPPPPPPPPPPPPPPPPPPPPPPPPPPPPPPPPPPPPPPPPPPPPPPPPPPPPPPPPPPP"
};
