/* XPM */
static char *_0be2dadf84c433990b8dc523e4a87cf9qgAF1FjCLEjZ50g[] = {
/* columns rows colors chars-per-pixel */
"64 64 19 1 ",
"  c #392A17",
". c #3F2C14",
"X c #34291A",
"o c #4D3920",
"O c #6D5C45",
"+ c #C0393E",
"@ c #8C6D29",
"# c #A07C2B",
"$ c #17904A",
"% c #B88B28",
"& c #F3D604",
"* c #C79D40",
"= c #C29C48",
"- c #C09D4E",
"; c #3983C0",
": c #D0B983",
"> c #B3C497",
", c #F9FAF7",
"< c white",
/* pixels */
"<<<<<<<<<<<<<<<<<<<<<<<<<<<<<<<<<<<<<<<<<<<<<<<<<<<<<<<<<<<<<<<<",
"<<<<<<<<<<<<<<<<<<<<<<<<<<<<<<<<<<<<<<<<<<<<<<<<<<<<<<<<<<<<<<<<",
"<<<<<<<<<<<<<<<<<<<<<<<<<<<<<<<<<<<<<<<<<<<<<<<<<<<<<<<<<<<<<<<<",
"<<<<<<<<<<<<<<<<<<<<<<<<<<<<<<<<<<<<<<<<<<<<<<<<<<<<<<<<<<<<<<<<",
"<<<<<<<<<<<<<<<<<<<<<<<<<<<<<<<<<<<<<<<<<<<<<<<<<<<<<<<<<<<<<<<<",
"<<<<<<<<<<<<<<<<<<<<<<<<<<<<<<<<<<<<<<<<<<<<<<<<<<<<<<<<<<<<<<<<",
"<<<<<<<<<<<<<<<<<<<<<<<<<<<<<<<<<<<<<<<<<<<<<<<<<<<<<<<<<<<<<<<<",
"<<<<<<<<<<<<<<<<<<<<<<<<<<<<<<<<<<<<<<<<<<<<<<<<<<<<<<<<<<<<<<<<",
"<<<<<<<<<<<<<<<<<<<<<<<<<<<<<<<<<<<<<<<<<<<<<<<<<<<<<<<<<<<<<<<<",
"<<<<<<<<<<<<<<<<<<<<<<<<<<<<<<<<<<<<<<<<<<<<<<<<<<<<<<<<<<<<<<<<",
"<<<<<<<<<<<<<<<<<<<<<<<<<<<<<<<<<<<<<<<<<<<<<<<<<<<<<<<<<<<<<<<<",
"<<<<<<<<<<<<<<<<<<<<<<<<<<<<<<<<<<<<<<<<<<<<<<<<<<<<<<<<<<<<<<<<",
"<<<<<<<<<<<<<<<<<<<<<<<<<<<<<<<<<<<<<<<<<<<<<<<<<><<<<<<<<<<<<<<",
"<<<<<<<<<<<<<<<<<<<<<<<<<<<<<<<<<<<<<<<<<<<<<<<<<<<<<<<<<<<<<<<<",
"<<<<<<<<<<<<<<<<<<<<<<<<<<<<<<<<<<<<<<<<<<<<<<<<<,<<<<<<<<<<<<<<",
"<<<<<<<<<<<<<<<<<<<<<<<<<<<<<<<<<<<<<<<<<<<<<<<<<<<<<<<<<<<<<<<<",
"<<<<<<<<<<<<<<<<<<<<<<<<<<<<<<<<<<<<<<<<<<<<<<<<<<<<<<<<<<<<<<<<",
"<<<<<<<<<<<<<<<<<<<<<oooooooooo.......<<<<<<<<<<<<<<<<<<<<<<<<<<",
"<<<<<<<<<<<<<<<<<<<<ooooooo;;o...X$XX...<<<<<<<<<<<<<<<<<<<<<<<<",
"<<<<<<<<<<<<<<<<<<ooo;;...o.;.&++..$XXX.X<<<<<<<<<<<<<<<<<<<<<<<",
"<<<<<<<<<<<<<<<<<ooo;;..++o.oo&+..+..;;;X..<<<<<<<<<<<<<<<<<<<<<",
"<<<<<<<<<<<<<<<<ooo....ooo&&.o&&.oo.&&XXX .<<<<<<<<<<<<<<<<<<<<<",
"<<<<<<<<<<<<<<<oooo..o$$$oooooo&oooooOoXXXX.<<<<<<<<<<<<<<<<<<<<",
"<<<<<<<<<<<<<<<o&&o;;o..oo*oo**oo**ooO++.XXX.<<<<<<<<<<<<<<<<<<<",
"<<<<<<<<<<<<<<oooo..o...*%**o*%*o***ooo+o.XXX<<<<<<<<<<<<<<<<<<<",
"<<<<<<<<<<<<<<o$o......%%%%%%%%**%%%*oo.o.;XX<<<<<<<<<<<<<<<<<<<",
"<<<<<<<<<<<<<.o$.+++&.%%%<<<<<<<<<<%**o$.o;XX<<<<<<<<<<<<<<<<<<<",
"<<<<<<<<<<<<<.oo.XX&&..%<<<<<<<<<<<%%*o..oXXX<<<<<<<<<<<<<<<<<<<",
"<<<<<<<<<<<<<.ooXXX&o..%<<<<<<<<<<<<%oo..;XX.<<<<<<<<<<<<<<<<<<<",
"<<<<<<<<<<<<<.o.;;X.o;;..<<<<<<<<<<<....X;X..<<<<<<<<<<<<<<<<<<<",
"<<<<<<<<<<<<<.o;;.++o...X.<<<<<<<<..OO;;..&&.<<<<<<<<<<<<<<<<<<<",
"<<<<<<<<<<<<<.oo.XX++o..$$...XX$$...Oo.X.....<<<<<<<<<<<<<<<<<<<",
"<<<<<<<<<<<<<*%...XX++&.$.XXXX..$.oo.......X#<<<<<<<<<<<<<<<<<<<",
"<<<<<<<<<<<<<*%%.$$XXX&XX..;....ooo++..%##.X#<<<<<<<<<<<<<<<<<<<",
"<<<<<<<<<<<<<***%.$X.XX++oO;&&.+..$...X%*=X.#<<<<<<<<<<<<<<<<<<<",
"<<<<<<<<<<<<<%*-*.XX..++...ooOO+oo$$..XX*=X.#<<<<<<<<<<<<<<<<<<<",
"<<<<<<<<<<<<<%%--.X%%....o$$OO.+.&....%X**#%@<<<<<<<<<<<<<<<<<<<",
"<<<<<<<<<<<<<@%%-.-%%%...oooO...&&*%*.*X*#%#@<<<<<<<<<<<<<<<<<<<",
"<<<<<<<<<<<<<<%%%.:%%%%.X..oo...X.******#%@@<<<<<<<<<<<<<<<<<<<<",
"<<<<<<<<<<<<<<@@%%::-%%.X%%***%XX**%***%%%@<<<<<<<<<<<<<<<<<<<<<",
"<<<<<<<<<<<<<<<@@%%*---XX**::**:.*%%%*%@@@@<<<<<<<<<<<<<<<<<<<<<",
"<<<<<<<<<<<<<<<<@@%%**-X*:%*::::*%**%%%@@@<<<<<<<<<<<<<<<<<<<<<<",
"<<<<<<<<<<<<<<<<<@@@%%%%%%%%*%%%%**%%*@@<<<<<<<<<<<<<<<<<<<<<<<<",
"<<<<<<<<<<<<<<<<<<<@@%@%%@%%%@%*@%%%@@%<<<<<<<<<<<<<<<<<<<<<<<<<",
"<<<<<<<<<<<<<<<<<<<<@@@@@@@@@@@@@@@@@<<<<<<<<<<<<<<<<<<<<<<<<<<<",
"<<<<<<<<<<<<<<<<<<<<<<<<<<<<<<<<<<<<<<<<<<<<<<<<<<<<<<<<<<<<<<<<",
"<<<<<<<<<<<<<<<<<<<<<<<<<<<<<<<<<<<<<<<<<<<<<<<<<<<<<<<<<<<<<<<<",
"<<<<<<<<<<<<<<<<<<<<<<<<<<<<<<<<<<<<<<<<<<<<<<<<<<<<<<<<<<<<<<<<",
"<<<<<<<<<<<<<<<<<<<<<<<<<<<<<<<<<<<<<<<<<<<<<<<<<<<<<<<<<<<<<<<<",
"<<<<<<<<<<<<<<<<<<<<<<<<<<<<<<<<<<<<<<<<<<<<<<<<<<<<<<<<<<<<<<<<",
"<<<<<<<<<<<<<<<<<<<<<<<<<<<<<<<<<<<<<<<<<<<<<<<<<<<<<<<<<<<<<<<<",
"<<<<<<<<<<<<<<<<<<<<<<<<<<<<<<<<<<<<<<<<<<<<<<<<<<<<<<<<<<<<<<<<",
"<<<<<<<<<<<<<<<<<<<<<<<<<<<<<<<<<<<<<<<<<<<<<<<<<<<<<<<<<<<<<<<<",
"<<<<<<<<<<<<<<<<<<<<<<<<<<<<<<<<<<<<<<<<<<<<<<<<<<<<<<<<<<<<<<<<",
"<<<<<<<<<<<<<<<<<<<<<<<<<<<<<<<<<<<<<<<<<<<<<<<<<<<<<<<<<<<<<<<<",
"<<<<<<<<<<<<<<<<<<<<<<<<<<<<<<<<<<<<<<<<<<<<<<<<<<<<<<<<<<<<<<<<",
"<<<<<<<<<<<<<<<<<<<<<<<<<<<<<<<<<<<<<<<<<<<<<<<<<<<<<<<<<<<<<<<<",
"<<<<<<<<<<<<<<<<<<<<<<<<<<<<<<<<<<<<<<<<<<<<<<<<<<<<<<<<<<<<<<<<",
"<<<<<<<<<<<<<<<<<<<<<<<<<<<<<<<<<<<<<<<<<<<<<<<<<<<<<<<<<<<<<<<<",
"<<<<<<<<<<<<<<<<<<<<<<<<<<<<<<<<<<<<<<<<<<<<<<<<<<<<<<<<<<<<<<<<",
"<<<<<<<<<<<<<<<<<<<<<<<<<<<<<<<<<<<<<<<<<<<<<<<<<<<<<<<<<<<<<<<<",
"<<<<<<<<<<<<<<<<<<<<<<<<<<<<<<<<<<<<<<<<<<<<<<<<<<<<<<<<<<<<<<<<",
"<<<<<<<<<<<<<<<<<<<<<<<<<<<<<<<<<<<<<<<<<<<<<<<<<<<<<<<<<<<<<<<<",
"<<<<<<<<<<<<<<<<<<<<<<<<<<<<<<<<<<<<<<<<<<<<<<<<<<<<<<<<<<<<<<<<"
};
