/* XPM */
static char *_bf44396b301416aea13ca75526d5522r81FD4O2qfXh4DGg[] = {
/* columns rows colors chars-per-pixel */
"65 64 12 1 ",
"  c black",
". c #1C0D05",
"X c #5E2E10",
"o c #7C3E15",
"O c #385B00",
"+ c #4C7E00",
"@ c #874116",
"# c #B25415",
"$ c #67A800",
"% c #808080",
"& c gray80",
"* c white",
/* pixels */
"*****************************************************************",
"*****************************************************************",
"*****************************************************************",
"*****************************************************************",
"*****************************************************************",
"*****************************************************************",
"*****************************************************************",
"*****************************************************************",
"*****************************************************************",
"************                                            *********",
"************ @@@@@@@@@@X@@@@@@@@@@@@@@@@@@@@@@@X@@@@@@@ *********",
"************ oo#######@X######################@X######@ *********",
"************ oo&######@X######################@X###%##@ *********",
"************ o%%&..........###################@X##&&%#@ *********",
"************ oo%#..........###################@X###%##@ *********",
"************ oo##..........###################@X######@ *********",
"************ XXXX....XXXXXXXXXXXXXXXXXXXXXXXXXXXXXXXXXX *********",
"************ @@@@....@@@@@@@@@X@@@@@@@@@@@@@@@@@@@X@@@@ *********",
"************ oo##....########@X###################X###@ *********",
"************ oo##....########@X###################X###@ *********",
"************ oo##....########@X###################X###@ *********",
"************ oo##..........##@X###################X###@ *********",
"************ XXXX..........X..XXXXXXXX..XXXXXX..XXXXXXX *********",
"************ @@@@..........@..@@@@@@X@..@@@@@@..@@@@X@@ *********",
"************ oo##....##############@X#########..###@X#@ *********",
"************ oo##....#######..#.....X#..##...#.....@X#@ *********",
"************ oo##....#######..#..##..#..#..###..##..X#@ *********",
"************ oo##....#######..#..##..#..#...##..##..X#@ *********",
"************ XXXX....XXXXXXX..X..XX..X..XX...X..XX..XXX *********",
"************ @@%@....@@@X@@@..@..@@..@..@@@..@..@@..@@@ *********",
"************ o%&&....##@X###..#..##..#..#...X#..##..%#@ *********",
"************ oo%#######@X##################@X######&##@ *********",
"************ oooooooooo@Xoooooooooooooooooo@Xooooooooo@ *********",
"************ oooooooooo@Xoooooooooooooooooo@Xooooooooo@ *********",
"************                                            *********",
"****************************** ##ooooo **************************",
"****************************** ##ooooo **************************",
"****************************** ##ooooo **************************",
"****************************** ##ooooo **************************",
"****************************** ##ooooo **************************",
"****************************** ##ooooo **************************",
"****************************** ##ooooo **************************",
"****************************** ##ooooo **************************",
"****************************** ##ooooo **************************",
"****************************** ##ooooo **************************",
"****************************** ##ooooo **************************",
"****************************** ##ooooo **************************",
"****************************** ##oo++o+**************************",
"**************************+*** ##oo+++ **************************",
"**************************+$*$ ##ooOOo **************************",
"***************************+$*$##o+Ooo **+***********************",
"****************************$*$+#$O+oo$*+O***********************",
"****************************++$$+$O++$++O+***********************",
"************************++***OO$+OO+$+$OO+++++*******************",
"************************O++$++OO+OOO$++O+$$OO********************",
"***************************O$+O++O++OO+++************************",
"*****************************+*+***+++***************************",
"*****************************************************************",
"*****************************************************************",
"*****************************************************************",
"*****************************************************************",
"*****************************************************************",
"*****************************************************************",
"*****************************************************************"
};
