/* XPM */
static char *_d48225c506c45e59aad41b19db5f8f50jmzNBfkMPdUQt6O[] = {
/* columns rows colors chars-per-pixel */
"64 64 8 1 ",
"  c #0D2B45",
". c #203C56",
"X c #544E68",
"o c #8D697A",
"O c #D08159",
"+ c #FFAA5E",
"@ c #FFD4A3",
"# c #FFECD6",
/* pixels */
"O##+@@@@@@@+Oo...  .ooOOOOOoOOOOOOOOOOOOOOOOOOOOOOO+@@#@@@@@#@##",
"O@@@@@+@++@@+@ooo..OOOOOOOooOOOOOOOooOOOOoOOOOOOOOO@+@@@@@@@@@@@",
"O@@@@@@@@@+++@OoX..OOooooooooOOOOOOOOOOOOOOOOOOOOO+++++@+++@@@@@",
"O@@@@@@##@@#+@@o...OooooooooooOOOOOOOOOOOOOOOO++++++++++@@+@@@@@",
"O##@@@@@@@#O@+@oX..OoooooooooOOOOooooooOOOOOOOO+++@@@@@@+@@@@@@@",
"O+++++++++O+++@oX..OoooooooooOOooOOOOOoo+O+++++O+++#+++#########",
"O+++++++++O++@@o...OOooooooooXoooooooooooOOOOOOOOO++++++@oo+++++",
"O++++++++++++@@o...OOoooooooooooXooooooooOOOOOOOO++++++++@@o++++",
"O+++++++++++++@o...oOooooooooXXOXXooooooooOOOOOOO+++++++++++++++",
"O++++O+++++O++@o...oOoooooooooooooooooooooOOOOOO++++++++++++++++",
"O++++O+++++++@@o.X.OOooooooooooooooooooooOOOOOOO++++++++++++++++",
"O++++++++++++@@o...OOooooooooooooooooooooooOooOOO+++++++++++++++",
"O+++++OO+++++@@o...OOOooooooooooooooooooooooOOOOOOO+++++++++++++",
"O+++++++OOOO@@OoX..OXXXXXXXoooooXXXXXXXooooOOOO++++OOOO+++OO+++O",
"O+O+OOOOOOOOO@ooX...XXXXXXoXXXXXXXXXXXXXXXXooooOOOOOOOOOOOOOOOOO",
"OoOOOOOOOOOooooo....XX..XXXX.XXXX..X.XXXXXXXXooOOOoooOoOOOOOOOOO",
"OoooooooooooooOoXXXXXXXXXXX....................XXXXXXXoooooooooo",
"O.oooooooooooOOoXXXXXXXXXXXX.....................XXXXXXooooooooo",
"O.oooOOOoooXooooooXoooooooOXXX...XX..XXX..XXXXX.....XXXXXXooXXXX",
"O.XXXXXooooXXXXooXXXXoXXXXXX..........XXX...........XXXXXXXXXXXX",
"O.++++++++++++++++++++++++oX.X..XoO+++++++++++oXo++++ooXXXXXXXXo",
"OO+++++++oXX++O+O++o+++++++o. X.XO+++++O+++O+++o+++++++oXo++++++",
"OO+++OOOOOOOOOOOOOOOOO+O++++.X..O+O++OOOOOOOOOOOO++OOO+++++OO+O+",
"OOOOO+OOOOOOOOOOOOOOOOOOOO+O.X..O+OOOOOOOOOOOOOOOOOOOOOOOOOOOOOO",
"OooOOOOOOOOOOOOOOOOOOOOOOOO+. ..+OOOOOOOOOOOOOOOOOOOOOOOOOOOOOOO",
"OOOOOOOOOOOOOOOOOOOOOOOOOOO+....+OOOOOOOOOOOOOOOOOOOOOOOOOOOOOOO",
"OOOOOOOOOOOOOOOOOOOOOOOOOO++....+OOOOOOOOooOO+oOOOOOOOOOOOOOOOOO",
"OOOOOOOOOOOOOOOOOOOOOOOOOO++....++OOOOOOO+XoOO+OOOOOOOOOOOOOOOOO",
"OOOOOOOOOOOOOOOOooOOOOOOOOO+. ..O+OOOOOOOo+OOOOOOOOOOOOOOOOOOOOO",
"OOOOOOOOOOOOOOOOOOOOOOOOOo++.X..o+OOOOOOOOOOOOOOOOOOOOOOOOOOOOOO",
"OOOOOOOOOOOOOOOOOOOOOOOOOOO+X...O+OOOOOOOOOOOOOOOOOOOOOOOOOOOOOO",
"OOOOOOOOOOOOOOOOOOOOOOOOOOO+X...OOOOOOOOOOOOOOOOOOOOOOOOOOOOOOOO",
"OOOOOOOOOOOOOOOOOOOOOOOOOO++X...++OOOOOOOOOOOOOOOOOOOOOOOOOOOOOO",
"OOOOOOOOOOOOOOOOOOOOOOooOO++X  .++OOoOOOOOOOOOOOOOOOOOOOOOOOOOOO",
"OOOOooOoooOOOOOOOOOOooooooo+.  .+ooooOOOOOOOOOOOooooOOOOOOooooOO",
"OOoooooooooOoooooooooooooooX.. .oooooooooooooooOOOooooOooooooooo",
"OoooooXoooooooooooooooooooXXX. .XXXXoooooXXoooooooooooooooXXXXXX",
"OXXXXXXXXXXXXXX.XXXXXXXXXXXXX  ....XXXXXXX.............XXXXXXXXX",
"O.XXXXXXXXXXXXXXX.XXXXXXXXoXX.                       ..XXXXXXXoX",
"O.XXXXooXXXXXXXXXXXX.XoooXXX...           ...X  ....  XXXooXXoXX",
"O.......X.X.......... .....                  .X   ..............",
"O..XoOOOOOOOOoOXOoXXoOOXXOoooo. .ooooooXXX..  .   XooXX.X...XoOO",
"OOOOOOOOOOXOOOOoOOOOOOOOOOooooooooXooooooooo. . ..OOOOOOOOOOOOOO",
"OOOOOoooXoooooooXXooOOOoooooooXoooXXXXoooooo. . ..OOOOOOooOoOOOo",
"OOoooooooooooooooooooooooXXXXXXXXXXXXXXXXXXoX . .XOooooooooooooo",
"OooooooooooooooooooooooooXXXXXXXXXXXXXXXXXXoX . .Xoooooooooooooo",
"Oooooooooooooooooooo.XXXXXXXXXXXXXXXXXXXXXXoo . .oOooooooooooooo",
"OoooooooooooooooooooXXXXXXXXXXXXXXXXXXXXXXXXo  ..oOooooooooooooo",
"OoooooooooooooooooooXXXXXXXXXXXXXXXXo..XXXXoo   .OOoooooXooooooo",
"OooooooooooooooooXXXXXXXXXXXXXXXXXXXooooooooO....Xoooooooooooooo",
"OoooooooooXoooooooXXXXXXXXXXXXXXXXXoooooooooo.X..Xoooooooooooooo",
"Oooooooooo.ooooooooXoXXXXXXXXXXXXoooooooooooO.X..XOXoooooooooooo",
"OooooooooooooooooooXooXXXXXXXXXooooooooooooOO.X..oOooooooooooooo",
"OooooooooooooooooooooooooooooooooooooooooooOO.X..XOooooooooooooo",
"OooooooooooooooooooooooooooooooooooooooooooOO.X.XXOooooooooXoooo",
"OoooooooooooooooooooooooooooooooooooooooXooOO.XXXXOooooooooooooo",
"OOOOOoooOooooXoooooooXoooXXXoXXoooXoXXXXXXXOO.XXXXoOOooOOoooOooX",
"OOooooooooXXXXXXXXXXooXXXXXXXoXXXXXXXXXXXXXXO..XXoooooOOOOOOOOOO",
"OOOOOOOOOOOOOOOOOooooooooo.XXXXX.XXXXXXXXXX...XXXXoOOOOOOOOoOOOO",
"OOOOOOOOOOOOOOOOoooooooooo...................XXXoooOOOOOOOOOOOOO",
"OOOOOOOOOOOOOOOoooo.ooo...............X.......XXooOoooOooooooooo",
"OXXooXXXoooooXo.. X.....oXX.X....XXX.X.........XXXoooOoooooOOOOo",
"OXXXXXXXXXXXXXXOo...........X..........XXXXoXXXXX.oooooooXXXX...",
"OOOOOOOOOOOOOOOOOOOOOOOOOOOOOOOOOOOOOOOOOOOOOOOOOOOOOOOOOOOOOOOO"
};
